<svg xmlns="http://www.w3.org/2000/svg" xmlns:xlink="http://www.w3.org/1999/xlink" id="Layer_2" viewBox="0 0 179.017740136260727 86.458379981883809"><defs><linearGradient id="linear-gradient" x1="34676.989225009187066" y1="-26802.043429832076072" x2="34676.989225009187066" y2="-27529.171262586241937" gradientTransform="translate(-861.7742773376267 -717.365815649883302) scale(.028346460312605 -.028346460312605)" gradientUnits="userSpaceOnUse"><stop offset="0" stop-color="#0a1917"></stop><stop offset=".870599975585938" stop-color="#114d3d"></stop><stop offset="1" stop-color="#1c8363"></stop></linearGradient><linearGradient id="linear-gradient-2" y1="-26033.446418273582822" y2="-26760.081242361542536" xlink:href="#linear-gradient"></linearGradient><linearGradient id="linear-gradient-3" x1="32443.252471011503076" y1="-25307.068598292928073" x2="32443.252471011503076" y2="-26034.196468030670076" xlink:href="#linear-gradient"></linearGradient><linearGradient id="linear-gradient-4" x1="32443.252471011503076" y1="-26074.915597077968414" x2="32443.252471011503076" y2="-26802.043429832076072" xlink:href="#linear-gradient"></linearGradient></defs><g id="Layer_1-2"><polygon points="163.298049361982521 42.377244730567327 163.298049361982521 42.377244730567327 109.433328699881713 42.377244730567327 79.093193617471115 62.988744983923425 132.957914279571014 62.988744983923425 163.298049361982521 42.377244730567327" style="fill:url(#linear-gradient); fill-rule:evenodd; stroke-width:0px;"></polygon><polygon points="109.433328699881713 41.168038393072493 163.298049361982521 41.168038393072493 163.298049361982521 41.168038393072493 132.957914279571014 20.611501301709723 79.093193617471115 20.611501301709723 109.433328699881713 41.168038393072493" style="fill:url(#linear-gradient-2); fill-rule:evenodd; stroke-width:0px;"></polygon><polygon points="15.774668613244103 20.611501301709723 69.639387178634024 20.611501301709723 99.979513874203803 0 46.114797405523859 0 15.774668613244103 20.611501301709723" style="fill:url(#linear-gradient-3); fill-rule:evenodd; stroke-width:0px;"></polygon><polygon points="46.114797405523859 42.377244730567327 99.979513874203803 42.377244730567327 69.639387178634024 21.765744477213048 15.774668613244103 21.765744477213048 15.774668613244103 21.765744477213048 46.114797405523859 42.377244730567327" style="fill:url(#linear-gradient-4); fill-rule:evenodd; stroke-width:0px;"></polygon><path d="M0,86.183551591663672h10.113375914642347c5.221581112537933,0,6.595681129429067-2.088633703041523,6.595681129429067-4.067332695258301,0-1.703887375681006-1.26417159619723-3.132946361142785-3.242876878544848-3.627627399327139v-.054967355412373c1.703883182259233-.384746327360517,2.693236871788031-1.484026340873243,2.693236871788031-2.968052681746485,0-1.868772668234669-1.319136854898716-3.737553723309247-5.716256908946889-3.737553723309247H0v3.462733719930839h1.264172120375406v7.475107446620314H0v3.517692688502393ZM6.980428505145028,83.050605230521796v-2.858126357763467h1.538991599576548c1.48402843758322,0,1.978703185636732.549640006755908,1.978703185636732,1.429067372303507,0,.989353689527888-.659568427448903,1.374100016889315-2.253524237370584,1.374100016889315l-1.264170547842696.054958968570645h0ZM6.980428505145028,77.609172518372361v-2.638273709796522h1.429064227238086c1.429064227236267,0,1.923740023646133.43971368277289,1.923740023646133,1.319132661477852,0,.934386334117335-.549640006756817,1.319132661477852-1.978704233993085,1.319132661477852l-1.374100016891134.000008386840818h0ZM18.138120222953148,86.183551591663672h14.015820172280655v-5.771220070939307h-3.517696881923257v2.308486351008469h-3.462731623220861v-7.475107446620314h1.374100016890225v-3.462733719933567h-8.409491684026762v3.462733719933567h1.319136854898716v7.475107446620314h-1.319136854898716v3.462733719930839ZM33.088326729352048,86.183551591663672h14.015820172280655v-5.771220070939307h-3.517696881923257v2.308486351008469h-3.462729526510884v-7.475107446620314h1.374100016890225v-3.462733719933567h-8.409493780736739v3.462733719933567h1.319136854897806v7.475107446620314h-1.319136854897806v3.462733719930839ZM67.220974503643447,79.862691513967548c-.384746327361427,2.198560027025451-1.264173692907207,3.242872685125803-2.748200033780449,3.242872685125803-1.703883182260142,0-2.47338003040386-1.264173692907207-2.47338003040386-4.067332695259211,0-2.968052681746485.934386334118244-4.012373726688566,2.363453706419932-4.012373726688566,1.154247368925098,0,2.088633703041523.714533686150389,2.528347385815323,2.088633703042433h3.682586367896874v-5.276547419595772h-3.517701075342302v.934386334117335c-1.044312658101262-.824460010134317-2.583306354385968-1.264173692907207-4.177263212664002-1.264173692907207-4.177263212661273,0-7.25524641181164,3.132946361141876-7.25524641181164,7.475107446619404,0,3.023020037158858,1.648920020267724,7.42014009120885,8.299563263332857,7.42014009120885,4.507046378032101,0,6.430786401678233-2.363453706420842,7.145320087829532-5.276547419595772l-3.847480047292265-1.264165306067298ZM72.827300895188273,78.983272535262586c0,3.407766364520285,2.583306354385059,7.475107446621223,8.299567456752811,7.475107446621223,5.771220070939307,0,8.299567456753721-4.06733269526012,8.299567456753721-7.475107446621223,0-3.407766364520285-2.583306354385059-7.475107446618495-8.299567456753721-7.475107446618495-5.771220070939307,0-8.299567456752811,4.067332695258301-8.299567456752811,7.475107446618495ZM79.203128328294952,78.983272535262586c0-2.693232678368076.329787358789872-4.067332695259211,1.923740023646133-4.067332695259211,1.538993696284706,0,1.923740023647042,1.374100016891134,1.923740023647042,4.067332695259211,0,2.693232678368986-.329787358789872,4.067332695259211-1.923740023647042,4.067332695259211-1.593961051697079,0-1.923740023646133-1.374100016890225-1.923740023646133-4.067332695259211ZM91.240241121517101,86.183551591663672h5.716252715527844v-3.462733719930839h-1.154247368924189v-7.969780097964758h.054967355412373l4.34215269863671,11.432513817895597h2.198560027023632l4.397120054049083-11.432513817895597h.054967355412373v7.969780097964758h-1.154247368924189v3.462733719930839h7.639992739173977v-3.462733719930839h-1.154247368924189v-7.475107446620314h1.154247368924189v-3.462733719933567h-8.794240108098165l-2.253527382436005,5.55136742297509-2.143592671613078-5.55136742297509h-8.904158045240365v3.462733719933567h1.154247368925098v7.475107446620314h-1.154247368925098v3.462733719930839h0ZM115.039655091426539,86.183551591663672h8.629346428702775v-3.462733719930839h-1.484026340873243v-1.978707379058505h3.407766364519375c4.781866381410509,0,5.881146394922325-2.693232678368986,5.881146394922325-4.452087409461456,0-2.418412674990577-1.813813699663115-4.50704637803392-6.485753757089697-4.50704637803392h-9.948487477022354v3.462733719933567h1.429067372302598v7.475107446620314h-1.429067372302598l.000008386840818,3.462733719930839h0ZM122.184975179256071,77.609172518372361v-2.638273709796522h1.374100016890225c1.429067372302598,0,1.923740023646133.43971368277289,1.923740023646133,1.319132661477852,0,.824460010134317-.549640006755908,1.319132661477852-1.758846344251651,1.319132661477852l-1.538993696284706.000008386840818h0ZM132.683094276193515,86.183551591663672h8.024747453375312v-3.462733719930839h-1.099280013511816v-2.418412674991487h1.813805312822296l3.187905329712521,5.881146394922325h5.331514775008145v-3.462733719930839h-1.044312658101262l-2.033674734469969-3.297840040537267c1.319132661477852-.549640006755908,2.143592671613078-1.86877266823376,2.143592671613078-3.35280739594873,0-.87942736554669-.274820003378409-1.923740023647042-1.154247368924189-2.748200033781359-1.209214724337471-1.209206337494834-2.803167389192822-1.538993696286525-6.980434795276778-1.538993696286525h-8.189632745929885v3.462733719933567h1.209214724336562v7.475107446620314h-1.209206337495743l.000008386841728,3.462733719930839h0ZM139.608561716057011,77.719098842355379v-2.74820003377954h1.648920020268633c1.154247368923279,0,1.75885473109247.549640006755908,1.75885473109247,1.374100016890225,0,.824460010133407-.60460736216919,1.374100016889315-1.813805312823206,1.374100016889315h-1.593969438537897ZM150.326541847801309,86.183551591663672h5.82618742635168v-3.132946361141876h-1.209214724336562l.604607362167371-1.813813699663115h3.792512691881711l.549640006754998,1.813813699663115h-1.264165306065479v3.132946361141876h7.694960094586349v-3.462733719930839h-1.099280013513635l-2.803167389191003-7.475107446620314h1.209214724336562v-3.462733719933567h-10.608045420922281v3.462733719933567h1.209214724336562l-2.748200033780449,7.475107446620314h-1.099280013511816v3.462733719930839h-.054984129094009ZM156.152729274152989,79.422977831195567l1.319132661477852-3.957406371276193h.054967355412373l1.209214724336562,3.957406371276193h-2.583314741226786ZM167.365382057240822,86.183551591663672h3.297840040537267v-.934386334117335c.98934530268707.714533686151299,2.308494737848378,1.154247368925098,3.517692688503303,1.154247368925098,2.748200033780449,0,4.836825349979335-1.868772668234669,4.836825349979335-4.342152698637619,0-1.374100016891134-.714525299308661-2.583306354386878-1.264165306065479-3.132946361141876-1.703887375679187-1.648920020268633-4.891792705393527-2.528347385814413-5.551367422973271-3.187913716554249-.164885292553663-.164893679395391-.274820003378409-.384746327360517-.274820003378409-.659566330738926,0-.549640006755908.384754714203154-.87942736554578,1.099280013513635-.87942736554578.98934530268707,0,1.648920020266814.494672651343535,2.033674734469969,1.484026340874152l.054967355412373.164893679394481h3.297840040535448v-4.067332695259211h-3.297840040535448v.87942736554578c-.879427365547599-.714533686150389-2.033674734469969-1.099280013511816-3.297840040537267-1.099280013511816-2.748200033780449,0-4.616972702015119,1.703887375680097-4.616972702015119,4.232226374653692,0,1.154247368924189.384754714201335,2.088633703041523,1.319132661477852,3.023020037157949,1.593952664856261,1.538993696286525,4.177267406083047,1.923740023647042,5.166612708771936,2.858126357764377.274820003378409.274820003378409.384754714201335.494672651344445.384754714201335.769492654721944,0,.549640006756817-.439705295932072.934386334117335-1.154247368924189.934386334117335-1.099280013511816,0-1.813805312822296-.549640006755908-2.253527382436005-1.868772668234669h-3.297840040537267v4.671931670586673h0Z" style="fill:#231f20; stroke-width:0px;"></path></g></svg>